<mxfile host="app.diagrams.net" modified="2024-04-20T09:15:21.884Z" agent="Mozilla/5.0 (Windows NT 10.0; Win64; x64) AppleWebKit/537.36 (KHTML, like Gecko) Chrome/123.0.0.0 Safari/537.36 Edg/123.0.0.0" version="24.2.5" etag="r9F6X_65xNHLu-1J1WRn" type="github">
  <diagram name="Seite-1" id="vm4IJ1x3MJsWIz7GZEQl">
    <mxGraphModel>
      <root>
        <mxCell id="0" />
        <mxCell id="1" parent="0" />
      </root>
    </mxGraphModel>
  </diagram>
</mxfile>
